# xmcd CD database file
#
# Track frame offsets:
#	150
#	7479
#	26257
#	43332
#	68147
#	88662
#	98927
#	118565
#	130815
#	142322
#	152355
#	160672
#	169357
#	173927
#	186032
#	200007
#	211000
#	219537
#	227672
#	245297
#	258987
#	274750
#	287605
#	296292
#	307475
#
# Disc length: 4127 seconds
#
# Revision: 0
# Processed by: cddbd v1.5PL3 Copyright (c) Steve Scherf et al.
# Submitted via: CDex 1.51
#
DISCID=76101d19
DTITLE=Various Artist - The Art of Harp Vol. 2
DYEAR=1900
DGENRE=Jazz
TTITLE0=Windharp - Wind sounds
TTITLE1=Rüdiger Oppermann - Tarantella
TTITLE2=Sileas - Cameron MacFayden, Dr Camerons Casebook, Miss Kirsten Lindsay Morrison
TTITLE3=Ayubogada - Obiero
TTITLE4=Alan Stivell - La dame du lac
TTITLE5=Nancy Allen - Toccata (Jean-Baptiste Loeillet)
TTITLE6=Wolfgang Schafferer - Agattanz
TTITLE7=Wolfgang Schafferer - Der lustige Tiroler
TTITLE8=Oketwengwu - Slim ubengo awobi ira
TTITLE9=Toji - Playing the Ngombi na peke
TTITLE10=Toji - Playing the Musical Bow
TTITLE11=Ngonnalati - Bounaka
TTITLE12=Ozengi - Playing the Dingili
TTITLE13=Traditional Musicians - Playing the Ndomu bow-harp
TTITLE14=Rüdiger Oppermann - Fragile Balance
TTITLE15=Nancy Allen - Morning Serenade from Romeo and Juliet (Prokofjew)
TTITLE16=Nancy Allen - Le Coucou (Louis-Claude Daquin)
TTITLE17=Sileas - Buain A'Choirce
TTITLE18=Sileas - Miss Ann Cameron, Amys Rollerskates, Paddys Leather Breeches
TTITLE19=Harp Attack - Blues from Harpistan (electric harp sounds)
TTITLE20=Harp Attack - News from Harpistan
TTITLE21=Angel Dario Gonzalez - Llegada
TTITLE22=Wolfgang Schafferer - Reseler Marsch
TTITLE23=Wolfgang Schafferer - Kehraus
TTITLE24=Ozengi and Pyerina - The magic spell that didn't work out
EXTD=
EXTT0=
EXTT1=
EXTT2=
EXTT3=
EXTT4=
EXTT5=
EXTT6=
EXTT7=
EXTT8=
EXTT9=
EXTT10=
EXTT11=
EXTT12=
EXTT13=
EXTT14=
EXTT15=
EXTT16=
EXTT17=
EXTT18=
EXTT19=
EXTT20=
EXTT21=
EXTT22=
EXTT23=
EXTT24=
PLAYORDER=
